<svg width="24" height="24" viewBox="0 0 24 24" fill="none" xmlns="http://www.w3.org/2000/svg">
<g id="gift-box 1" clip-path="url(#clip0_43_1287)">
<path id="Vector" d="M16.535 13.6629H4.1617L14.8764 6.85039C14.9076 6.83057 14.9345 6.80481 14.9557 6.77457C14.977 6.74433 14.992 6.7102 15 6.67414C15.0081 6.63808 15.0089 6.60079 15.0025 6.56441C14.9961 6.52802 14.9826 6.49325 14.9628 6.46208L13.9012 4.79248C13.6591 4.41263 13.2763 4.14432 12.8366 4.04642C12.3969 3.94853 11.9363 4.02904 11.5559 4.2703L10.0482 5.22894L10.1676 4.65749C10.2147 4.45088 10.2205 4.23701 10.1847 4.02816C10.1489 3.81931 10.0721 3.6196 9.95887 3.44049C9.84562 3.26139 9.6981 3.10644 9.52479 2.98452C9.35147 2.86261 9.15577 2.77614 8.94893 2.73009C8.7421 2.68404 8.5282 2.67931 8.31953 2.71618C8.11086 2.75305 7.91153 2.83079 7.733 2.94493C7.55446 3.05906 7.40024 3.20735 7.27919 3.38128C7.15814 3.5552 7.07265 3.75133 7.02763 3.95839L6.24435 7.47655L3.62165 6.89277C3.23052 6.8056 2.82095 6.86756 2.47311 7.06652C2.12527 7.26548 1.86422 7.58711 1.74107 7.96843C1.61792 8.34976 1.64154 8.76333 1.8073 9.12815C1.97307 9.49298 2.26904 9.7828 2.63727 9.94086L1.02205 10.9679C0.64221 11.21 0.373909 11.5929 0.276013 12.0325C0.178118 12.4722 0.258623 12.9328 0.499867 13.3131L1.56145 14.9828C1.58126 15.014 1.60702 15.0409 1.63725 15.0621C1.66749 15.0834 1.70161 15.0984 1.73766 15.1064C1.77372 15.1145 1.811 15.1153 1.84739 15.1089C1.88377 15.1026 1.91854 15.0891 1.94971 15.0693L2.93784 14.4411V21.5609C2.93834 22.0113 3.11752 22.4432 3.43604 22.7617C3.75456 23.0802 4.18642 23.2593 4.63687 23.2598H15.1174C15.5678 23.2593 15.9996 23.0802 16.3181 22.7617C16.6366 22.4432 16.8158 22.0113 16.8163 21.5609V13.9442C16.8163 13.9072 16.809 13.8707 16.7949 13.8365C16.7807 13.8024 16.76 13.7714 16.7339 13.7453C16.7078 13.7191 16.6768 13.6984 16.6426 13.6843C16.6085 13.6702 16.5719 13.6629 16.535 13.6629ZM11.8578 4.74505C12.0392 4.62904 12.25 4.56733 12.4653 4.5672C12.5491 4.56725 12.6327 4.57647 12.7145 4.59472C12.8603 4.62679 12.9983 4.68745 13.1206 4.77321C13.2428 4.85896 13.3468 4.9681 13.4265 5.09431L14.3372 6.52658L9.90754 9.34311L8.3871 6.95183L11.8578 4.74505ZM7.57668 4.08069C7.63744 3.81001 7.80324 3.57456 8.0376 3.42613C8.27196 3.2777 8.55569 3.22844 8.82637 3.2892C9.09704 3.34997 9.3325 3.51576 9.48093 3.75013C9.62936 3.98449 9.67861 4.26822 9.61785 4.53889L9.38694 5.64345L6.8713 7.24888L7.57668 4.08069ZM7.9123 7.25366L9.43274 9.64494L6.86587 11.2769L5.34548 8.88566L7.9123 7.25366ZM2.38945 9.02403C2.27844 8.84946 2.22169 8.64589 2.22638 8.43906C2.23107 8.23224 2.29699 8.03145 2.4158 7.86209C2.53461 7.69273 2.70098 7.5624 2.89385 7.48759C3.08673 7.41279 3.29746 7.39685 3.4994 7.44181L5.77213 7.94778L3.24923 9.5293L3.04476 9.48374C2.91056 9.45424 2.78354 9.39842 2.67106 9.31952C2.55858 9.24061 2.46286 9.14018 2.38945 9.02403ZM1.8853 14.4437L0.974664 13.0114C0.813292 12.7569 0.759433 12.4489 0.824901 12.1548C0.890369 11.8607 1.06982 11.6046 1.32388 11.4426L4.87077 9.18748L6.39116 11.5788L1.8853 14.4437ZM7.33935 22.6973H4.63687C4.33557 22.697 4.04672 22.5771 3.83367 22.3641C3.62062 22.151 3.50078 21.8622 3.50043 21.5609V14.2254H7.33949L7.33935 22.6973ZM10.9142 22.6973H7.90185V14.2254H10.9142V22.6973ZM16.2537 21.5609C16.2534 21.8622 16.1335 22.151 15.9205 22.3641C15.7075 22.5771 15.4186 22.697 15.1174 22.6973H11.4767V14.2254H16.2537V21.5609Z" fill="black"/>
<path id="Vector_2" d="M19.6801 11.108L19.8147 10.3235C19.8235 10.2718 19.8177 10.2187 19.798 10.1701C19.7782 10.1215 19.7452 10.0794 19.7028 10.0486C19.6603 10.0177 19.6101 9.99937 19.5578 9.99557C19.5055 9.99177 19.4531 10.0027 19.4067 10.0271L18.7023 10.3974L17.9978 10.0271C17.9513 10.0026 17.899 9.9917 17.8466 9.99548C17.7943 9.99926 17.744 10.0176 17.7016 10.0485C17.6591 10.0793 17.6261 10.1214 17.6064 10.17C17.5866 10.2186 17.5808 10.2718 17.5897 10.3235L17.7242 11.108L17.1543 11.6635C17.1167 11.7001 17.0901 11.7465 17.0775 11.7975C17.065 11.8484 17.0669 11.9019 17.0831 11.9518C17.0993 12.0017 17.1292 12.0461 17.1693 12.0799C17.2094 12.1138 17.2582 12.1357 17.3102 12.1432L18.0977 12.2577L18.4499 12.9714C18.4731 13.0185 18.509 13.0581 18.5536 13.0858C18.5982 13.1135 18.6496 13.1282 18.7021 13.1282C18.7546 13.1282 18.8061 13.1135 18.8506 13.0858C18.8952 13.0581 18.9311 13.0185 18.9544 12.9714L19.3065 12.2577L20.094 12.1432C20.146 12.1357 20.1948 12.1138 20.2349 12.0799C20.275 12.0461 20.3049 12.0017 20.3211 11.9518C20.3373 11.9019 20.3392 11.8484 20.3267 11.7975C20.3141 11.7465 20.2875 11.7001 20.2499 11.6635L19.6801 11.108ZM19.0793 11.7221C19.0342 11.7286 18.9913 11.746 18.9544 11.7728C18.9175 11.7996 18.8877 11.835 18.8675 11.8759L18.7021 12.2112L18.5367 11.8759C18.5165 11.835 18.4867 11.7997 18.4498 11.7729C18.4129 11.7461 18.37 11.7286 18.3249 11.7221L17.9549 11.6683L18.2226 11.4073C18.2553 11.3755 18.2797 11.3362 18.2938 11.2929C18.3079 11.2495 18.3112 11.2033 18.3035 11.1584L18.2403 10.7899L18.5712 10.9638C18.6116 10.9851 18.6565 10.9962 18.7021 10.9962C18.7477 10.9962 18.7926 10.9851 18.833 10.9638L19.1639 10.7899L19.1007 11.1584C19.093 11.2033 19.0963 11.2495 19.1104 11.2929C19.1245 11.3362 19.1489 11.3755 19.1816 11.4073L19.4493 11.6683L19.0793 11.7221Z" fill="black"/>
<path id="Vector_3" d="M22.914 7.23275L22.1405 7.04478L21.8569 6.30121C21.8382 6.25216 21.8062 6.20932 21.7644 6.17754C21.7226 6.14576 21.6728 6.1263 21.6205 6.12136C21.5683 6.11643 21.5157 6.12621 21.4687 6.14961C21.4217 6.17301 21.3822 6.20909 21.3547 6.25377L20.937 6.93125L20.1421 6.97124C20.0897 6.97388 20.0391 6.99112 19.996 7.02103C19.9528 7.05094 19.9189 7.09231 19.8981 7.14047C19.8773 7.18864 19.8703 7.24167 19.8781 7.29357C19.8858 7.34547 19.9079 7.39418 19.9419 7.43418L20.4571 8.04078L20.2496 8.80907C20.2359 8.85973 20.2366 8.91321 20.2517 8.96347C20.2668 9.01372 20.2957 9.05874 20.3351 9.09344C20.3745 9.12814 20.4228 9.15113 20.4745 9.15982C20.5263 9.1685 20.5794 9.16253 20.628 9.14258L21.3639 8.84005L22.0308 9.27491C22.0748 9.30358 22.1258 9.31938 22.1783 9.32053C22.2308 9.32168 22.2825 9.30813 22.3277 9.28141C22.3728 9.25469 22.4096 9.21587 22.4339 9.16933C22.4581 9.1228 22.4689 9.07041 22.4649 9.01808L22.4047 8.22449L23.024 7.72494C23.0649 7.692 23.0957 7.6483 23.113 7.59877C23.1303 7.54923 23.1334 7.49585 23.1219 7.44465C23.1105 7.39345 23.0849 7.34647 23.0482 7.30903C23.0114 7.27158 22.9649 7.24516 22.914 7.23275ZM21.9363 7.87963C21.9009 7.90825 21.8729 7.94508 21.8548 7.98693C21.8367 8.02878 21.829 8.0744 21.8325 8.11986L21.8606 8.49266L21.5474 8.28833C21.5092 8.26342 21.4656 8.24817 21.4202 8.24389C21.3748 8.23961 21.329 8.24643 21.2868 8.26377L20.9411 8.40589L21.0386 8.04496C21.0505 8.00094 21.0515 7.95469 21.0416 7.91019C21.0316 7.8657 21.011 7.82429 20.9815 7.78953L20.7394 7.50458L21.1128 7.48583C21.1584 7.48356 21.2027 7.47024 21.242 7.44703C21.2812 7.42383 21.3142 7.39142 21.3382 7.35261L21.5343 7.03438L21.6676 7.38369C21.6838 7.42629 21.7102 7.46429 21.7444 7.49443C21.7786 7.52457 21.8196 7.54594 21.8639 7.55671L22.2273 7.64502L21.9363 7.87963Z" fill="black"/>
<path id="Vector_4" d="M18.7786 2.66072L18.571 3.429C18.5573 3.47967 18.558 3.53316 18.5731 3.58342C18.5882 3.63368 18.6171 3.67871 18.6565 3.71342C18.6959 3.74813 18.7442 3.77112 18.7959 3.77981C18.8477 3.78849 18.9009 3.78252 18.9494 3.76257L19.6853 3.45999L20.3519 3.89494C20.3959 3.92361 20.447 3.93942 20.4995 3.94057C20.5519 3.94171 20.6037 3.92816 20.6488 3.90143C20.694 3.87471 20.7308 3.83588 20.755 3.78933C20.7793 3.74279 20.79 3.69039 20.7861 3.63807L20.7258 2.84447L21.3453 2.34488C21.3862 2.31194 21.417 2.26823 21.4343 2.2187C21.4516 2.16917 21.4547 2.11579 21.4432 2.06459C21.4318 2.01338 21.4062 1.96641 21.3695 1.92896C21.3327 1.89152 21.2862 1.8651 21.2353 1.85269L20.4618 1.66477L20.1782 0.921144C20.1595 0.872103 20.1275 0.829275 20.0857 0.797502C20.0439 0.765729 19.9941 0.74628 19.9418 0.741354C19.8896 0.736428 19.837 0.746222 19.79 0.769628C19.743 0.793034 19.7035 0.829119 19.676 0.8738L19.2584 1.55124L18.4634 1.59117C18.411 1.5938 18.3604 1.61105 18.3173 1.64095C18.2742 1.67085 18.2403 1.71223 18.2194 1.76039C18.1986 1.80855 18.1916 1.86159 18.1994 1.91349C18.2071 1.9654 18.2292 2.01411 18.2631 2.05411L18.7786 2.66072ZM19.4344 2.10553C19.48 2.10325 19.5243 2.08992 19.5635 2.06671C19.6027 2.04349 19.6358 2.01108 19.6597 1.97227L19.8559 1.65403L19.9891 2.00335C20.0054 2.04595 20.0317 2.08396 20.066 2.11411C20.1002 2.14426 20.1412 2.16564 20.1855 2.17641L20.5488 2.26467L20.2578 2.49933C20.2223 2.52795 20.1943 2.56477 20.1762 2.60662C20.1581 2.64847 20.1504 2.6941 20.1539 2.73957L20.182 3.11241L19.8688 2.90808C19.8306 2.88317 19.7869 2.86792 19.7415 2.86364C19.6962 2.85936 19.6504 2.86618 19.6082 2.88352L19.2625 3.02564L19.36 2.66471C19.3719 2.62068 19.3729 2.57442 19.3629 2.52992C19.353 2.48541 19.3324 2.444 19.3028 2.40924L19.0608 2.12424L19.4344 2.10553Z" fill="black"/>
<path id="Vector_5" d="M13.6756 11.1485C13.0407 11.5481 12.7305 12.0323 12.7176 12.0527C12.6776 12.1157 12.6643 12.192 12.6806 12.2648C12.6969 12.3376 12.7415 12.4009 12.8045 12.4409C12.8674 12.4808 12.9437 12.4941 13.0165 12.4778C13.0893 12.4615 13.1526 12.417 13.1926 12.354C13.2348 12.2884 14.2524 10.7502 16.4673 11.298C16.5394 11.3152 16.6154 11.3032 16.6787 11.2646C16.742 11.226 16.7875 11.164 16.8053 11.092C16.8231 11.02 16.8118 10.9439 16.7738 10.8803C16.7358 10.8166 16.6742 10.7705 16.6024 10.752C15.2397 10.4149 14.2586 10.7815 13.6756 11.1485Z" fill="black"/>
<path id="Vector_6" d="M19.0121 8.16995C19.081 8.19854 19.1584 8.19859 19.2273 8.1701C19.2963 8.1416 19.3511 8.08688 19.3797 8.01798C19.4083 7.94908 19.4083 7.87165 19.3798 7.80271C19.3513 7.73377 19.2966 7.67898 19.2277 7.65039C17.2255 6.81943 15.7702 7.4417 14.9021 8.11014C14.3261 8.55806 13.8494 9.12064 13.502 9.76229C13.4856 9.79537 13.4758 9.83137 13.4733 9.86821C13.4708 9.90506 13.4756 9.94205 13.4873 9.97705C13.4991 10.0121 13.5177 10.0444 13.5419 10.0722C13.5662 10.1001 13.5957 10.1229 13.6288 10.1393C13.6619 10.1557 13.6979 10.1655 13.7347 10.168C13.7716 10.1705 13.8086 10.1657 13.8436 10.154C13.8786 10.1422 13.9109 10.1236 13.9388 10.0993C13.9666 10.0751 13.9894 10.0455 14.0058 10.0125C14.3158 9.4478 14.7374 8.95218 15.2452 8.55582C16.3368 7.71559 17.6042 7.58565 19.0121 8.16995Z" fill="black"/>
<path id="Vector_7" d="M15.8525 6.08638C15.8296 6.15735 15.8357 6.23453 15.8697 6.30094C15.9036 6.36735 15.9626 6.41756 16.0335 6.44052C16.4207 6.55461 16.8223 6.61263 17.226 6.61283C17.6963 6.61283 18.2395 6.52794 18.7267 6.23919C19.3642 5.86147 19.7729 5.21793 19.9423 4.32669C19.9494 4.29035 19.9492 4.25297 19.9417 4.21671C19.9343 4.18044 19.9198 4.146 19.899 4.11536C19.8782 4.08472 19.8516 4.05848 19.8207 4.03815C19.7897 4.01782 19.7551 4.0038 19.7187 3.99689C19.6823 3.98998 19.645 3.99031 19.6087 3.99788C19.5725 4.00545 19.5381 4.02009 19.5075 4.04098C19.477 4.06186 19.4508 4.08858 19.4306 4.11959C19.4104 4.1506 19.3965 4.1853 19.3897 4.22169C19.252 4.94643 18.9332 5.462 18.4423 5.75404C17.5085 6.30964 16.2267 5.91186 16.2064 5.90539C16.1354 5.88253 16.0583 5.88874 15.992 5.92268C15.9257 5.95661 15.8755 6.01549 15.8525 6.08638Z" fill="black"/>
<path id="Vector_8" d="M12.1344 13.3534C12.2346 13.3534 12.3325 13.3237 12.4158 13.2681C12.4991 13.2124 12.5641 13.1333 12.6024 13.0407C12.6408 12.9482 12.6508 12.8463 12.6313 12.7481C12.6117 12.6498 12.5635 12.5596 12.4926 12.4887C12.4218 12.4179 12.3316 12.3696 12.2333 12.3501C12.135 12.3305 12.0332 12.3405 11.9406 12.3789C11.8481 12.4172 11.769 12.4821 11.7133 12.5654C11.6576 12.6487 11.6279 12.7467 11.6279 12.8469C11.6281 12.9811 11.6815 13.1099 11.7765 13.2048C11.8714 13.2998 12.0001 13.3532 12.1344 13.3534ZM12.1344 12.7909C12.1455 12.7909 12.1563 12.7942 12.1656 12.8003C12.1748 12.8065 12.182 12.8152 12.1862 12.8255C12.1904 12.8357 12.1916 12.847 12.1894 12.8578C12.1872 12.8687 12.1819 12.8787 12.1741 12.8865C12.1662 12.8944 12.1562 12.8997 12.1454 12.9019C12.1345 12.904 12.1232 12.9029 12.113 12.8987C12.1028 12.8944 12.094 12.8872 12.0879 12.878C12.0817 12.8688 12.0784 12.8579 12.0784 12.8469C12.0785 12.832 12.0844 12.8178 12.0949 12.8074C12.1054 12.7969 12.1196 12.791 12.1344 12.7909Z" fill="black"/>
<path id="Vector_9" d="M16.1198 4.16589C16.22 4.16589 16.3179 4.13619 16.4012 4.08053C16.4845 4.02487 16.5494 3.94576 16.5878 3.8532C16.6261 3.76065 16.6362 3.6588 16.6166 3.56054C16.5971 3.46229 16.5488 3.37203 16.478 3.30119C16.4071 3.23035 16.3169 3.18211 16.2186 3.16257C16.1204 3.14302 16.0185 3.15305 15.926 3.19139C15.8334 3.22973 15.7543 3.29465 15.6986 3.37795C15.643 3.46125 15.6133 3.55918 15.6133 3.65936C15.6134 3.79366 15.6668 3.92241 15.7618 4.01737C15.8568 4.11233 15.9855 4.16575 16.1198 4.16589ZM16.1198 3.60339C16.1309 3.60339 16.1417 3.60668 16.1509 3.61284C16.1602 3.619 16.1673 3.62775 16.1716 3.63798C16.1758 3.64822 16.1769 3.65949 16.1747 3.67036C16.1726 3.68122 16.1672 3.6912 16.1594 3.69904C16.1516 3.70687 16.1416 3.7122 16.1307 3.71436C16.1198 3.71651 16.1086 3.7154 16.0983 3.71115C16.0881 3.7069 16.0794 3.69971 16.0732 3.6905C16.0671 3.68128 16.0638 3.67044 16.0638 3.65936C16.0639 3.64453 16.0698 3.63033 16.0803 3.61985C16.0908 3.60937 16.105 3.60346 16.1198 3.60339Z" fill="black"/>
<path id="Vector_10" d="M23.2595 3.77966C23.1593 3.77966 23.0613 3.80937 22.978 3.86503C22.8947 3.92069 22.8298 3.9998 22.7915 4.09236C22.7531 4.18492 22.7431 4.28677 22.7627 4.38503C22.7822 4.48329 22.8305 4.57354 22.9013 4.64438C22.9722 4.71522 23.0624 4.76346 23.1607 4.783C23.2589 4.80254 23.3608 4.7925 23.4533 4.75415C23.5459 4.71581 23.625 4.65088 23.6806 4.56757C23.7363 4.48427 23.766 4.38633 23.766 4.28615C23.7658 4.15186 23.7124 4.02311 23.6175 3.92816C23.5225 3.8332 23.3938 3.7798 23.2595 3.77966ZM23.2595 4.34216C23.2484 4.34216 23.2376 4.33888 23.2283 4.33272C23.2191 4.32657 23.2119 4.31782 23.2077 4.30758C23.2035 4.29735 23.2024 4.28609 23.2045 4.27522C23.2067 4.26435 23.212 4.25437 23.2199 4.24654C23.2277 4.2387 23.2377 4.23337 23.2485 4.23121C23.2594 4.22905 23.2707 4.23016 23.2809 4.2344C23.2911 4.23864 23.2999 4.24581 23.306 4.25503C23.3122 4.26424 23.3155 4.27507 23.3155 4.28615C23.3154 4.30098 23.3095 4.3152 23.299 4.32569C23.2885 4.33618 23.2743 4.3421 23.2595 4.34216Z" fill="black"/>
<path id="Vector_11" d="M11.9271 10.5013C11.9271 10.4011 11.8974 10.3031 11.8417 10.2198C11.7861 10.1365 11.7069 10.0716 11.6144 10.0333C11.5218 9.99495 11.4199 9.98494 11.3217 10.0045C11.2234 10.0241 11.1332 10.0723 11.0623 10.1432C10.9915 10.2141 10.9433 10.3044 10.9238 10.4026C10.9042 10.5009 10.9143 10.6028 10.9527 10.6953C10.9911 10.7879 11.056 10.867 11.1394 10.9226C11.2227 10.9782 11.3207 11.0079 11.4209 11.0078C11.5551 11.0076 11.6838 10.9542 11.7787 10.8592C11.8736 10.7642 11.927 10.6355 11.9271 10.5013ZM11.4209 10.5575C11.4098 10.5575 11.399 10.5543 11.3898 10.5481C11.3806 10.542 11.3734 10.5333 11.3691 10.523C11.3649 10.5128 11.3637 10.5016 11.3659 10.4907C11.368 10.4798 11.3733 10.4699 11.3811 10.462C11.3889 10.4542 11.3989 10.4488 11.4097 10.4466C11.4206 10.4444 11.4318 10.4455 11.4421 10.4497C11.4523 10.4539 11.4611 10.461 11.4673 10.4702C11.4735 10.4794 11.4768 10.4902 11.4768 10.5013C11.4768 10.5162 11.4708 10.5304 11.4603 10.5409C11.4498 10.5514 11.4355 10.5573 11.4206 10.5573L11.4209 10.5575Z" fill="black"/>
<path id="Vector_12" d="M22.4255 10.8193C22.3253 10.8193 22.2274 10.849 22.1441 10.9047C22.0608 10.9604 21.9958 11.0395 21.9575 11.132C21.9192 11.2246 21.9091 11.3264 21.9287 11.4247C21.9482 11.5229 21.9965 11.6132 22.0673 11.684C22.1381 11.7549 22.2284 11.8031 22.3267 11.8227C22.4249 11.8422 22.5268 11.8322 22.6193 11.7938C22.7119 11.7555 22.791 11.6906 22.8466 11.6073C22.9023 11.524 22.932 11.426 22.932 11.3259C22.9319 11.1916 22.8784 11.0628 22.7835 10.9679C22.6885 10.8729 22.5598 10.8195 22.4255 10.8193ZM22.4255 11.3818C22.4144 11.3818 22.4036 11.3785 22.3944 11.3724C22.3852 11.3662 22.378 11.3575 22.3738 11.3473C22.3696 11.337 22.3685 11.3258 22.3706 11.3149C22.3728 11.3041 22.3781 11.2941 22.386 11.2863C22.3938 11.2785 22.4038 11.2731 22.4146 11.271C22.4255 11.2688 22.4367 11.2699 22.447 11.2742C22.4572 11.2784 22.4659 11.2856 22.4721 11.2948C22.4782 11.304 22.4815 11.3148 22.4815 11.3259C22.4814 11.3407 22.4755 11.3549 22.465 11.3654C22.4545 11.3759 22.4403 11.3818 22.4255 11.3818Z" fill="black"/>
</g>
<defs>
<clipPath id="clip0_43_1287">
<rect width="24" height="24" fill="white"/>
</clipPath>
</defs>
</svg>
