<svg width="24" height="24" viewBox="0 0 24 24" fill="none" xmlns="http://www.w3.org/2000/svg">
<g id="love 1">
<path id="Vector" d="M18.8884 9.97601C19.0924 9.31201 19.2004 8.64001 19.2004 7.97601C19.2004 5.40401 17.2284 3.31201 14.8004 3.31201C13.1484 3.31201 11.6324 4.21201 10.8004 5.62001C9.96839 4.21201 8.45239 3.31201 6.80039 3.31201C4.37239 3.31201 2.40039 5.40401 2.40039 7.97601C2.40039 13.84 10.2764 18.104 10.6124 18.284C10.6724 18.316 10.7364 18.332 10.8004 18.332C10.8644 18.332 10.9284 18.316 10.9884 18.284C11.0004 18.276 11.2884 18.124 11.7444 17.84C13.3444 19.52 15.2724 20.568 15.4124 20.64C15.4724 20.672 15.5364 20.688 15.6004 20.688C15.6644 20.688 15.7284 20.672 15.7884 20.64C16.0244 20.516 21.6004 17.492 21.6004 13.32C21.6004 11.628 20.4204 10.228 18.8884 9.97601ZM10.8004 17.472C9.61239 16.792 3.20039 12.884 3.20039 7.97601C3.20039 5.84401 4.81639 4.11201 6.80039 4.11201C8.14039 4.11201 9.78039 4.90801 10.4244 6.69201C10.4804 6.85201 10.6324 6.95601 10.8004 6.95601C10.9684 6.95601 11.1204 6.85201 11.1764 6.69201C11.8204 4.90801 13.4604 4.11201 14.8004 4.11201C16.7844 4.11201 18.4004 5.84401 18.4004 7.97601C18.4004 8.63201 18.2804 9.29601 18.0524 9.95601C17.0564 10.06 16.1564 10.612 15.6004 11.444C14.9804 10.516 13.9324 9.93201 12.8004 9.93201C11.0364 9.93201 9.60039 11.452 9.60039 13.32C9.60039 14.796 10.2964 16.124 11.2044 17.232C11.0404 17.332 10.9004 17.416 10.8004 17.472ZM15.6004 19.828C14.6444 19.272 10.4004 16.616 10.4004 13.32C10.4004 11.892 11.4764 10.732 12.8004 10.732C13.6964 10.732 14.7924 11.264 15.2244 12.46C15.2804 12.62 15.4324 12.724 15.6004 12.724C15.7684 12.724 15.9204 12.62 15.9764 12.46C16.4084 11.268 17.5044 10.732 18.4004 10.732C19.7244 10.732 20.8004 11.892 20.8004 13.32C20.8004 16.616 16.5564 19.272 15.6004 19.828Z" fill="black"/>
</g>
</svg>
